<?xml version="1.0" encoding="UTF-8"?>
<!DOCTYPE svg PUBLIC "-//W3C//DTD SVG 1.1//EN" "http://www.w3.org/Graphics/SVG/1.1/DTD/svg11.dtd">
<svg xmlns="http://www.w3.org/2000/svg" version="1.1" width="512px" height="512px" style="shape-rendering:geometricPrecision; text-rendering:geometricPrecision; image-rendering:optimizeQuality; fill-rule:evenodd; clip-rule:evenodd" xmlns:xlink="http://www.w3.org/1999/xlink">
<g><path style="opacity:0.986" fill="#030101" d="M 250.5,-0.5 C 255.167,-0.5 259.833,-0.5 264.5,-0.5C 276.278,1.05321 286.611,5.88654 295.5,14C 306.133,15.8955 314.299,21.3955 320,30.5C 323.299,37.0653 325.799,43.8987 327.5,51C 357.716,64.6082 388.049,77.9415 418.5,91C 433.648,98.8079 438.815,110.975 434,127.5C 432.92,129.996 431.586,132.33 430,134.5C 421.464,142.705 412.631,150.538 403.5,158C 421.167,158.333 438.833,158.667 456.5,159C 471.667,162.833 481.167,172.333 485,187.5C 485.167,218.505 485.667,249.505 486.5,280.5C 498.94,282.199 507.273,288.866 511.5,300.5C 511.5,331.5 511.5,362.5 511.5,393.5C 509.539,395.312 507.206,396.312 504.5,396.5C 500.91,396.456 498.41,394.789 497,391.5C 496.667,362.5 496.333,333.5 496,304.5C 494.833,300.667 492.333,298.167 488.5,297C 483.845,296.501 479.179,296.334 474.5,296.5C 465.494,296.334 456.494,296.5 447.5,297C 444.667,298.5 442.5,300.667 441,303.5C 440.5,367.499 440.333,431.499 440.5,495.5C 453.167,495.5 465.833,495.5 478.5,495.5C 484.5,495.5 490.5,495.5 496.5,495.5C 496.333,469.498 496.5,443.498 497,417.5C 498.41,414.211 500.91,412.544 504.5,412.5C 507.652,412.571 509.986,413.905 511.5,416.5C 511.5,446.833 511.5,477.167 511.5,507.5C 509.809,508.864 508.142,510.197 506.5,511.5C 339.167,511.5 171.833,511.5 4.5,511.5C 2.85774,510.197 1.19107,508.864 -0.5,507.5C -0.5,477.167 -0.5,446.833 -0.5,416.5C 1.01439,413.905 3.34772,412.571 6.5,412.5C 10.0897,412.544 12.5897,414.211 14,417.5C 14.5,443.498 14.6666,469.498 14.5,495.5C 25.8333,495.5 37.1667,495.5 48.5,495.5C 55.8333,495.5 63.1667,495.5 70.5,495.5C 70.6667,431.499 70.5,367.499 70,303.5C 68.413,300.244 65.913,298.077 62.5,297C 56.8431,296.501 51.1764,296.334 45.5,296.5C 37.4931,296.334 29.4931,296.5 21.5,297C 18.2716,298.563 16.1049,301.063 15,304.5C 14.6667,333.5 14.3333,362.5 14,391.5C 12.5627,394.708 10.0627,396.375 6.5,396.5C 3.79385,396.312 1.46052,395.312 -0.5,393.5C -0.5,362.5 -0.5,331.5 -0.5,300.5C 3.62036,288.726 11.9537,282.059 24.5,280.5C 25.3332,249.505 25.8332,218.505 26,187.5C 29.8333,172.333 39.3333,162.833 54.5,159C 72.1667,158.667 89.8333,158.333 107.5,158C 98.3694,150.538 89.5361,142.705 81,134.5C 73.7123,122.848 73.7123,111.182 81,99.5C 83.9889,95.5094 87.8222,92.676 92.5,91C 122.951,77.9415 153.284,64.6082 183.5,51C 190.212,29.2848 204.212,14.2848 225.5,6C 233.767,3.01799 242.1,0.851324 250.5,-0.5 Z M 183.5,114.5 C 186.837,122.998 191.17,131.165 196.5,139C 191.601,139.277 186.935,138.277 182.5,136C 176.003,132.586 169.67,128.919 163.5,125C 170.386,121.726 177.053,118.226 183.5,114.5 Z M 325.5,114.5 C 332.933,117.716 340.266,121.216 347.5,125C 338.693,130.737 329.36,135.403 319.5,139C 317.833,139.667 316.167,139.667 314.5,139C 320.209,131.749 323.875,123.583 325.5,114.5 Z"/></g>
<g><path style="opacity:1" fill="#544d55" d="M 300.5,32.5 C 303.556,46.1697 304.223,59.8364 302.5,73.5C 297.165,70.166 291.499,67.3327 285.5,65C 280.238,63.5615 274.904,63.2282 269.5,64C 254.397,69.7171 239.397,75.7171 224.5,82C 215.952,84.0034 207.285,84.8367 198.5,84.5C 192.987,47.1734 208.654,24.3401 245.5,16C 262.424,12.312 276.758,16.6453 288.5,29C 292.798,29.2674 296.798,30.4341 300.5,32.5 Z"/></g>
<g><path style="opacity:1" fill="#423e42" d="M 300.5,32.5 C 308.065,38.9935 311.899,47.3268 312,57.5C 312.667,65.5 312.667,73.5 312,81.5C 308.642,78.9688 305.476,76.3021 302.5,73.5C 304.223,59.8364 303.556,46.1697 300.5,32.5 Z"/></g>
<g><path style="opacity:1" fill="#fbba84" d="M 181.5,69.5 C 182.494,78.6517 182.827,87.985 182.5,97.5C 169.384,104.559 156.051,111.392 142.5,118C 138.293,121.07 137.46,124.903 140,129.5C 143.995,132.004 147.828,134.671 151.5,137.5C 149.448,139.878 147.448,142.211 145.5,144.5C 139.606,139.962 133.773,135.295 128,130.5C 126.543,127.634 126.21,124.634 127,121.5C 128.793,118.705 130.96,116.205 133.5,114C 146.588,107.039 159.755,100.206 173,93.5C 173.821,86.6536 173.654,79.987 172.5,73.5C 175.088,71.4082 178.088,70.0749 181.5,69.5 Z"/></g>
<g><path style="opacity:1" fill="#c79369" d="M 181.5,69.5 C 181.56,68.9569 181.893,68.6236 182.5,68.5C 183.823,78.3254 183.823,87.992 182.5,97.5C 182.827,87.985 182.494,78.6517 181.5,69.5 Z"/></g>
<g><path style="opacity:1" fill="#fbcfa2" d="M 406.5,103.5 C 406.703,108.725 405.203,113.392 402,117.5C 390.639,127.366 379.472,137.366 368.5,147.5C 365.049,144.617 362.049,141.284 359.5,137.5C 363.172,134.671 367.005,132.004 371,129.5C 373.54,124.903 372.707,121.07 368.5,118C 354.922,111.294 341.422,104.461 328,97.5C 327.168,87.8161 327.335,78.1495 328.5,68.5C 354.602,80.1898 380.602,91.8565 406.5,103.5 Z"/></g>
<g><path style="opacity:1" fill="#fbcfa2" d="M 172.5,73.5 C 173.654,79.987 173.821,86.6536 173,93.5C 159.755,100.206 146.588,107.039 133.5,114C 130.96,116.205 128.793,118.705 127,121.5C 126.21,124.634 126.543,127.634 128,130.5C 133.773,135.295 139.606,139.962 145.5,144.5C 142.046,149.126 138.379,153.626 134.5,158C 133.5,158.667 132.5,158.667 131.5,158C 118.371,147.206 105.538,136.04 93,124.5C 88.4693,114.718 91.3026,107.885 101.5,104C 125.188,93.821 148.855,83.6544 172.5,73.5 Z"/></g>
<g><path style="opacity:1" fill="#fcd0a3" d="M 303.5,94.5 C 298.763,122.737 282.763,141.237 255.5,150C 250.566,151.16 245.566,151.66 240.5,151.5C 215.166,143.484 201.166,126.151 198.5,99.5C 208.263,99.7856 217.929,98.9523 227.5,97C 241.055,91.8904 254.388,86.2237 267.5,80C 273.642,77.8514 279.642,78.1847 285.5,81C 292.105,84.7909 298.105,89.2909 303.5,94.5 Z"/></g>
<g><path style="opacity:1" fill="#fbba84" d="M 303.5,94.5 C 307.275,96.0562 310.275,98.5562 312.5,102C 308.491,127.667 294.158,144.334 269.5,152C 260.88,153.464 252.213,153.798 243.5,153C 242.263,152.768 241.263,152.268 240.5,151.5C 245.566,151.66 250.566,151.16 255.5,150C 282.763,141.237 298.763,122.737 303.5,94.5 Z"/></g>
<g><path style="opacity:1" fill="#fbba84" d="M 406.5,103.5 C 418.771,106.05 422.605,113.05 418,124.5C 405.462,136.04 392.629,147.206 379.5,158C 378.5,158.667 377.5,158.667 376.5,158C 373.593,154.605 370.927,151.105 368.5,147.5C 379.472,137.366 390.639,127.366 402,117.5C 405.203,113.392 406.703,108.725 406.5,103.5 Z"/></g>
<g><path style="opacity:1" fill="#3ec1a2" d="M 224.5,162.5 C 218.519,163.995 212.519,165.495 206.5,167C 195.284,168.715 184.617,167.048 174.5,162C 169.298,158.899 163.965,156.066 158.5,153.5C 160.458,150.208 162.791,147.208 165.5,144.5C 180.458,153.886 196.791,157.72 214.5,156C 218.009,158.03 221.342,160.196 224.5,162.5 Z"/></g>
<g><path style="opacity:1" fill="#6ed6a2" d="M 355.5,156.5 C 340.566,168.267 327.066,181.6 315,196.5C 310.557,204.051 307.223,212.051 305,220.5C 304.5,239.83 304.333,259.164 304.5,278.5C 283.012,285.056 261.345,291.389 239.5,297.5C 234.593,284.508 225.259,276.341 211.5,273C 205.222,271.812 198.888,271.312 192.5,271.5C 197.934,243.128 191.767,217.795 174,195.5C 164.927,185.924 155.427,176.924 145.5,168.5C 149.512,163.16 153.845,158.16 158.5,153.5C 163.965,156.066 169.298,158.899 174.5,162C 184.617,167.048 195.284,168.715 206.5,167C 212.519,165.495 218.519,163.995 224.5,162.5C 245.2,170.545 265.866,170.378 286.5,162C 289.833,160 293.167,158 296.5,156C 314.067,157.296 330.4,153.463 345.5,144.5C 349.203,148.202 352.537,152.202 355.5,156.5 Z"/></g>
<g><path style="opacity:1" fill="#3dc0a1" d="M 355.5,156.5 C 358.802,159.974 361.968,163.641 365,167.5C 365.667,168.167 365.667,168.833 365,169.5C 348.826,181.67 335.492,196.337 325,213.5C 323.056,217.723 321.389,222.056 320,226.5C 318.577,242.785 318.077,259.118 318.5,275.5C 313.839,276.497 309.173,277.497 304.5,278.5C 304.333,259.164 304.5,239.83 305,220.5C 307.223,212.051 310.557,204.051 315,196.5C 327.066,181.6 340.566,168.267 355.5,156.5 Z"/></g>
<g><path style="opacity:1" fill="#fe636e" d="M 145.5,323.5 C 125.833,323.5 106.167,323.5 86.5,323.5C 86.8235,316.978 86.4902,310.645 85.5,304.5C 82.6181,290.953 74.2848,283.286 60.5,281.5C 54.3554,280.51 48.0221,280.177 41.5,280.5C 41.5,250.5 41.5,220.5 41.5,190.5C 43.9106,182.255 49.244,176.755 57.5,174C 80.8333,173.333 104.167,173.333 127.5,174C 143.959,185.459 158.126,199.292 170,215.5C 176.927,227.571 179.427,240.571 177.5,254.5C 177.333,262.167 177.167,269.833 177,277.5C 163.199,288.466 157.699,302.799 160.5,320.5C 155.603,321.879 150.603,322.879 145.5,323.5 Z"/></g>
<g><path style="opacity:1" fill="#fd636e" d="M 453.5,174.5 C 447.491,174.334 441.491,174.501 435.5,175C 439.763,179.358 442.597,184.525 444,190.5C 444.168,221.003 444.668,251.336 445.5,281.5C 436.273,284.891 429.773,291.225 426,300.5C 425.5,308.159 425.334,315.826 425.5,323.5C 411.167,323.5 396.833,323.5 382.5,323.5C 382.5,322.5 382.5,321.5 382.5,320.5C 383.968,299.595 375.634,284.095 357.5,274C 351.019,271.737 344.352,270.57 337.5,270.5C 336.167,270.5 334.833,270.5 333.5,270.5C 333.5,259.167 333.5,247.833 333.5,236.5C 335.63,224.906 340.464,214.573 348,205.5C 359.239,194.257 371.072,183.757 383.5,174C 407.004,173.17 430.337,173.337 453.5,174.5 Z"/></g>
<g><path style="opacity:1" fill="#fa4354" d="M 453.5,174.5 C 461.843,176.843 467.176,182.176 469.5,190.5C 469.5,220.5 469.5,250.5 469.5,280.5C 462.646,280.176 455.979,280.509 449.5,281.5C 448.167,281.5 446.833,281.5 445.5,281.5C 444.668,251.336 444.168,221.003 444,190.5C 442.597,184.525 439.763,179.358 435.5,175C 441.491,174.501 447.491,174.334 453.5,174.5 Z"/></g>
<g><path style="opacity:1" fill="#da565f" d="M 41.5,190.5 C 41.5,220.5 41.5,250.5 41.5,280.5C 48.0221,280.177 54.3554,280.51 60.5,281.5C 53.8333,281.5 47.1667,281.5 40.5,281.5C 40.1685,250.995 40.5019,220.662 41.5,190.5 Z"/></g>
<g><path style="opacity:1" fill="#d73a48" d="M 469.5,190.5 C 470.498,220.662 470.831,250.995 470.5,281.5C 463.5,281.5 456.5,281.5 449.5,281.5C 455.979,280.509 462.646,280.176 469.5,280.5C 469.5,250.5 469.5,220.5 469.5,190.5 Z"/></g>
<g><path style="opacity:1" fill="#090303" d="M 375.5,218.5 C 380.644,218.57 384.978,220.57 388.5,224.5C 390.316,223.185 391.983,221.685 393.5,220C 401.602,217.105 405.435,219.938 405,228.5C 403.357,230.977 401.524,233.31 399.5,235.5C 401.524,237.69 403.357,240.023 405,242.5C 406.326,250.171 403.159,253.671 395.5,253C 392.975,250.804 390.475,248.638 388,246.5C 385.511,249.832 382.344,252.166 378.5,253.5C 373.069,252.249 370.569,248.916 371,243.5C 372.977,240.688 375.144,238.022 377.5,235.5C 371.959,232.112 370.126,227.445 372,221.5C 373.145,220.364 374.312,219.364 375.5,218.5 Z"/></g>
<g><path style="opacity:1" fill="#080302" d="M 109.5,218.5 C 111.199,218.34 112.866,218.506 114.5,219C 117.011,220.848 119.511,222.681 122,224.5C 124.882,221.727 128.215,219.727 132,218.5C 138.41,219.576 140.743,223.243 139,229.5C 137.542,231.96 135.709,234.127 133.5,236C 138.256,239.389 140.09,243.889 139,249.5C 136.588,252.792 133.421,253.959 129.5,253C 127.023,251.357 124.69,249.524 122.5,247.5C 119.348,250.162 115.848,252.162 112,253.5C 106.18,251.996 104.18,248.329 106,242.5C 107.458,240.04 109.291,237.873 111.5,236C 104.477,230.699 103.81,224.866 109.5,218.5 Z"/></g>
<g><path style="opacity:1" fill="#522024" d="M 333.5,236.5 C 333.5,247.833 333.5,259.167 333.5,270.5C 334.833,270.5 336.167,270.5 337.5,270.5C 336.081,271.451 334.415,271.784 332.5,271.5C 332.172,259.655 332.505,247.988 333.5,236.5 Z"/></g>
<g><path style="opacity:1" fill="#a9685c" d="M 363.5,299.5 C 360.816,310.687 353.816,317.853 342.5,321C 296.647,331.796 250.647,341.963 204.5,351.5C 202.011,342.543 199.677,333.543 197.5,324.5C 243.208,311.823 288.875,298.99 334.5,286C 347.261,284.049 356.928,288.549 363.5,299.5 Z"/></g>
<g><path style="opacity:1" fill="#90594e" d="M 192.5,286.5 C 206.704,284.497 217.704,289.331 225.5,301C 209.276,306.146 192.943,310.98 176.5,315.5C 173.801,301.22 179.135,291.553 192.5,286.5 Z"/></g>
<g><path style="opacity:1" fill="#aa685c" d="M 45.5,296.5 C 46.0447,298.593 46.878,300.593 48,302.5C 48.8218,310.012 48.6552,317.345 47.5,324.5C 36.8716,322.454 32.8716,326.954 35.5,338C 35.3993,342.281 35.8993,346.448 37,350.5C 40.2691,352.762 43.7691,353.095 47.5,351.5C 48.4988,399.33 48.8322,447.33 48.5,495.5C 37.1667,495.5 25.8333,495.5 14.5,495.5C 14.6666,469.498 14.5,443.498 14,417.5C 12.5897,414.211 10.0897,412.544 6.5,412.5C 6.5,407.167 6.5,401.833 6.5,396.5C 10.0627,396.375 12.5627,394.708 14,391.5C 14.3333,362.5 14.6667,333.5 15,304.5C 16.1049,301.063 18.2716,298.563 21.5,297C 29.4931,296.5 37.4931,296.334 45.5,296.5 Z"/></g>
<g><path style="opacity:1" fill="#935b50" d="M 45.5,296.5 C 51.1764,296.334 56.8431,296.501 62.5,297C 65.913,298.077 68.413,300.244 70,303.5C 70.5,367.499 70.6667,431.499 70.5,495.5C 63.1667,495.5 55.8333,495.5 48.5,495.5C 48.8322,447.33 48.4988,399.33 47.5,351.5C 50.0208,347.459 51.0208,342.959 50.5,338C 51.0208,333.041 50.0208,328.541 47.5,324.5C 48.6552,317.345 48.8218,310.012 48,302.5C 46.878,300.593 46.0447,298.593 45.5,296.5 Z"/></g>
<g><path style="opacity:1" fill="#aa685c" d="M 474.5,296.5 C 475.927,299.024 477.094,301.69 478,304.5C 478.5,368.166 478.667,431.832 478.5,495.5C 465.833,495.5 453.167,495.5 440.5,495.5C 440.333,431.499 440.5,367.499 441,303.5C 442.5,300.667 444.667,298.5 447.5,297C 456.494,296.5 465.494,296.334 474.5,296.5 Z"/></g>
<g><path style="opacity:1" fill="#925a4f" d="M 474.5,296.5 C 479.179,296.334 483.845,296.501 488.5,297C 492.333,298.167 494.833,300.667 496,304.5C 496.333,333.5 496.667,362.5 497,391.5C 498.41,394.789 500.91,396.456 504.5,396.5C 504.5,401.833 504.5,407.167 504.5,412.5C 500.91,412.544 498.41,414.211 497,417.5C 496.5,443.498 496.333,469.498 496.5,495.5C 490.5,495.5 484.5,495.5 478.5,495.5C 478.667,431.832 478.5,368.166 478,304.5C 477.094,301.69 475.927,299.024 474.5,296.5 Z"/></g>
<g><path style="opacity:1" fill="#915a4f" d="M 363.5,299.5 C 365.163,301.493 366.33,303.826 367,306.5C 370.096,320.813 364.929,330.646 351.5,336C 304.801,346.394 258.134,356.894 211.5,367.5C 210.558,367.392 209.725,367.059 209,366.5C 207.648,361.419 206.148,356.419 204.5,351.5C 250.647,341.963 296.647,331.796 342.5,321C 353.816,317.853 360.816,310.687 363.5,299.5 Z"/></g>
<g><path style="opacity:1" fill="#060303" d="M 47.5,324.5 C 50.0208,328.541 51.0208,333.041 50.5,338C 51.0208,342.959 50.0208,347.459 47.5,351.5C 43.7691,353.095 40.2691,352.762 37,350.5C 35.8993,346.448 35.3993,342.281 35.5,338C 32.8716,326.954 36.8716,322.454 47.5,324.5 Z"/></g>
<g><path style="opacity:1" fill="#823338" d="M 85.5,304.5 C 86.4902,310.645 86.8235,316.978 86.5,323.5C 106.167,323.5 125.833,323.5 145.5,323.5C 125.674,324.497 105.674,324.83 85.5,324.5C 85.5,317.833 85.5,311.167 85.5,304.5 Z"/></g>
<g><path style="opacity:1" fill="#742e32" d="M 382.5,320.5 C 382.5,321.5 382.5,322.5 382.5,323.5C 396.833,323.5 411.167,323.5 425.5,323.5C 411.01,324.496 396.343,324.829 381.5,324.5C 381.232,322.901 381.566,321.568 382.5,320.5 Z"/></g>
<g><path style="opacity:1" fill="#070303" d="M 465.5,323.5 C 469.684,322.704 472.85,324.037 475,327.5C 475.667,334.5 475.667,341.5 475,348.5C 474.535,349.931 473.701,351.097 472.5,352C 467.269,353.724 463.435,352.224 461,347.5C 460.333,341.167 460.333,334.833 461,328.5C 462.025,326.313 463.525,324.646 465.5,323.5 Z"/></g>
<g><path style="opacity:1" fill="#544d55" d="M 196.5,379.5 C 192.135,388.864 185.135,395.531 175.5,399.5C 169.292,379.186 163.292,358.686 157.5,338C 157.645,337.228 157.978,336.561 158.5,336C 166.154,334.337 173.654,332.17 181,329.5C 181.5,329.833 182,330.167 182.5,330.5C 187.577,346.729 192.244,363.063 196.5,379.5 Z"/></g>
<g><path style="opacity:1" fill="#f94354" d="M 141.5,339.5 C 144.41,345.787 146.41,352.454 147.5,359.5C 127.527,361.488 107.194,362.155 86.5,361.5C 86.5,354.167 86.5,346.833 86.5,339.5C 104.833,339.5 123.167,339.5 141.5,339.5 Z"/></g>
<g><path style="opacity:1" fill="#f84354" d="M 373.5,339.5 C 385.5,339.5 397.5,339.5 409.5,339.5C 406.824,347.836 402.491,355.169 396.5,361.5C 367.662,361.831 338.995,361.498 310.5,360.5C 325.339,357.232 340.172,353.899 355,350.5C 362.22,348.478 368.387,344.812 373.5,339.5 Z"/></g>
<g><path style="opacity:1" fill="#f7314a" d="M 409.5,339.5 C 414.5,339.5 419.5,339.5 424.5,339.5C 424.5,346.833 424.5,354.167 424.5,361.5C 415.167,361.5 405.833,361.5 396.5,361.5C 402.491,355.169 406.824,347.836 409.5,339.5 Z"/></g>
<g><path style="opacity:1" fill="#9e2a35" d="M 141.5,339.5 C 123.167,339.5 104.833,339.5 86.5,339.5C 86.5,346.833 86.5,354.167 86.5,361.5C 107.194,362.155 127.527,361.488 147.5,359.5C 148.404,360.209 148.737,361.209 148.5,362.5C 127.5,362.5 106.5,362.5 85.5,362.5C 85.5,354.5 85.5,346.5 85.5,338.5C 104.341,338.17 123.007,338.503 141.5,339.5 Z"/></g>
<g><path style="opacity:1" fill="#9e2532" d="M 373.5,339.5 C 390.659,338.503 407.992,338.17 425.5,338.5C 425.5,346.5 425.5,354.5 425.5,362.5C 384.832,362.667 344.165,362.5 303.5,362C 305.866,361.56 308.199,361.06 310.5,360.5C 338.995,361.498 367.662,361.831 396.5,361.5C 405.833,361.5 415.167,361.5 424.5,361.5C 424.5,354.167 424.5,346.833 424.5,339.5C 419.5,339.5 414.5,339.5 409.5,339.5C 397.5,339.5 385.5,339.5 373.5,339.5 Z"/></g>
<g><path style="opacity:1" fill="#fd636e" d="M 85.5,377.5 C 108.167,377.5 130.833,377.5 153.5,377.5C 157.891,393.844 162.391,410.177 167,426.5C 167.574,436.167 168.074,445.833 168.5,455.5C 146.377,459.682 133.711,473.016 130.5,495.5C 115.5,495.5 100.5,495.5 85.5,495.5C 85.5,456.167 85.5,416.833 85.5,377.5 Z"/></g>
<g><path style="opacity:1" fill="#fe636e" d="M 386.5,377.5 C 386.5,416.833 386.5,456.167 386.5,495.5C 338.833,495.5 291.167,495.5 243.5,495.5C 243.5,456.167 243.5,416.833 243.5,377.5C 291.167,377.5 338.833,377.5 386.5,377.5 Z"/></g>
<g><path style="opacity:1" fill="#f94354" d="M 386.5,377.5 C 399.5,377.5 412.5,377.5 425.5,377.5C 425.5,416.833 425.5,456.167 425.5,495.5C 412.5,495.5 399.5,495.5 386.5,495.5C 386.5,456.167 386.5,416.833 386.5,377.5 Z"/></g>
<g><path style="opacity:1" fill="#925a4f" d="M 227.5,379.5 C 227.5,404.167 227.5,428.833 227.5,453.5C 212.833,453.5 198.167,453.5 183.5,453.5C 183.065,445.789 183.065,438.123 183.5,430.5C 204.44,420.967 214.44,404.634 213.5,381.5C 218.201,381.043 222.868,380.376 227.5,379.5 Z"/></g>
<g><path style="opacity:1" fill="#5a3830" d="M 227.5,379.5 C 228.498,404.328 228.831,429.328 228.5,454.5C 213.324,454.829 198.324,454.496 183.5,453.5C 198.167,453.5 212.833,453.5 227.5,453.5C 227.5,428.833 227.5,404.167 227.5,379.5 Z"/></g>
<g><path style="opacity:1" fill="#413d41" d="M 196.5,379.5 C 200.478,395.551 195.144,407.551 180.5,415.5C 178.04,410.452 176.374,405.119 175.5,399.5C 185.135,395.531 192.135,388.864 196.5,379.5 Z"/></g>
<g><path style="opacity:1" fill="#544d55" d="M 213.5,469.5 C 213.5,478.167 213.5,486.833 213.5,495.5C 190.833,495.5 168.167,495.5 145.5,495.5C 147.969,482.861 155.302,474.361 167.5,470C 182.83,469.5 198.163,469.333 213.5,469.5 Z"/></g>
<g><path style="opacity:1" fill="#413d41" d="M 213.5,469.5 C 218.5,469.5 223.5,469.5 228.5,469.5C 228.5,478.167 228.5,486.833 228.5,495.5C 223.5,495.5 218.5,495.5 213.5,495.5C 213.5,486.833 213.5,478.167 213.5,469.5 Z"/></g>
</svg>
